<defs >
<font horiz-adv-x="444" ><font-face
    font-family="Dadhand"
    units-per-em="1000"
    panose-1="0 0 4 0 0 0 0 0 0 0"
    ascent="963"
    descent="-403"
    alphabetic="0" />
<missing-glyph horiz-adv-x="500" d="M63 0V963H438V0H63ZM125 63H375V901H125V63Z" />
<glyph unicode=" " glyph-name="space" horiz-adv-x="231" />
<glyph unicode="!" glyph-name="exclam" horiz-adv-x="242" d="M176 270Q176 213 141 213Q124 213 105 228T86 259Q86 281 90 326T95 393Q95 442 92 541T89 689Q89 716 120 716Q139 716 157 701T176 667V270ZM182 88Q182 74 171 50Q159 23 147 23Q129 23 113 36T97
66Q97 103 100 111Q107 129 137 129Q152 129 167 116T182 88Z" />
<glyph unicode="&quot;" glyph-name="quotedbl" horiz-adv-x="383" d="M313 606Q313 431 272 431Q243 431 228 503Q218 550 218 599V716Q226 726 240 726Q313 726 313 606ZM164 653Q164 601 156 551Q144 474 117 474Q94 474 80 525Q69 565 69 596Q69 670 86 709Q99
716 111 720L120 713L122 715L125 717Q142 717 153 695T164 653Z" />
<glyph unicode="#" glyph-name="numbersign" horiz-adv-x="705" d="M755 789H747V794H755V789ZM656 471L650 465L653 459Q625 448 569 443Q509 437 484 429V409Q484 398 496 398Q508 398 533 401T570 404Q583 404 607 385T632 354Q632 332 569 328Q493 324 484
317Q487 293 487 254Q487 129 454 129Q441 129 403 164L409 313Q363 310 323 306Q255 299 242 279Q233 265 233 187Q233 175 239 151T245 114Q244 112 235 94Q211 81 202 81Q190 81 170 111T149 155Q149 175 154 209Q160 249 161 262L151 266Q139 262 60 241Q47
241 31 258T15 288L16 295Q57 312 145 343L150 337Q152 339 171 351Q181 356 178 375H179Q182 380 182 390L177 395L22 370Q-4 370 -25 386T-47 427L-34 436L47 450Q95 458 128 458Q133 458 138 452Q147 460 200 470Q204 495 214 544T237 615H245Q268 615 285 601T303
565Q303 550 294 523T284 481L286 479Q326 490 392 490Q411 490 415 516Q414 509 414 556V704Q414 721 439 721Q490 721 490 589Q490 567 487 517Q498 506 506 506Q521 506 549 512T592 518Q613 518 628 504Q653 481 656 479V471ZM-42 -8H-50V-3H-42V-8ZM408 389V421H372Q356
421 277 408Q263 406 263 399L265 372Q290 373 340 376Q346 380 359 385L386 379Q393 383 408 389Z" />
<glyph unicode="$" glyph-name="dollar" horiz-adv-x="576" d="M618 789H610V794H618V789ZM572 789H561V794H572V789ZM557 789H534V794H557V789ZM524 789H513V794H524V789ZM349 550Q349 542 342 533T327 524Q324 524 309 531T289 540L281 536L280 543Q280 550
292 565Q268 591 250 591Q236 591 235 514Q234 428 231 355Q260 356 291 314T322 242Q322 205 287 178Q282 174 226 135Q222 131 215 76Q204 65 197 65Q181 65 165 83T151 117Q123 114 81 114Q69 114 45 124T9 136Q-2 147 -23 171Q-40 192 -40 213Q-40 234 -29
251L-11 259Q7 209 17 196Q36 171 78 171Q128 171 138 185Q145 194 145 246Q145 265 147 304T150 362Q92 403 52 456Q2 521 2 579Q2 663 167 663Q171 663 176 657Q180 668 183 707Q186 742 193 754H200Q250 754 250 688Q250 677 248 653Q269 639 311 610Q349 581
349 550ZM171 559V600H140Q118 600 95 585Q69 569 69 548Q69 515 98 472Q124 433 155 413Q159 471 163 529Q163 534 167 544T171 559ZM259 272Q259 283 249 296T229 313Q229 298 228 270T227 226Q259 258 259 272Z" />
<glyph unicode="%" glyph-name="percent" horiz-adv-x="628" d="M597 167Q597 122 524 83Q460 49 409 49Q369 49 333 79T297 148Q297 190 363 263T471 337Q481 337 502 323T523 299Q523 295 521 289T519 279Q597 223 597 167ZM531 623Q531 614 518 602Q422 514
408 502Q347 443 304 396Q190 268 145 147Q125 91 122 87Q103 46 82 46Q69 46 50 67T31 102Q31 129 214 412Q161 396 144 396Q114 396 89 426T63 487Q63 517 110 565T187 613L172 650Q187 649 191 648Q203 645 207 638L209 644Q237 632 264 585Q286 547 298 508Q308
521 329 544L374 580Q391 599 423 632Q459 670 476 670Q488 670 509 652T531 623ZM214 524V544Q197 542 172 516T142 472Q214 511 214 524ZM512 204Q512 217 492 229Q482 234 462 246Q418 200 409 189Q379 152 373 122H392Q421 122 466 149T512 204Z" />
<glyph unicode="&amp;" glyph-name="ampersand" horiz-adv-x="541" d="M499 151Q499 6 311 6Q195 6 118 78T41 266Q41 311 73 338Q86 366 130 397Q130 397 202 445Q203 461 202 482L200 519Q200 559 220 614Q241 673 267 698Q277 708 299 718T329 733Q355 733
386 706Q427 671 443 639T460 556Q460 460 358 414Q358 414 268 376Q271 345 279 345Q285 345 296 351T314 357Q339 357 361 342L367 348Q375 343 385 330L388 336Q437 312 468 260T499 151ZM393 586Q393 654 352 654Q326 654 294 595Q266 541 266 510V467H277Q350
507 355 511Q393 541 393 586ZM420 238Q388 281 355 281L317 271Q369 242 382 242Q386 242 393 245T403 248Q410 248 420 238ZM438 169Q431 166 421 166Q381 166 347 181Q323 192 284 221V211Q284 201 318 178T364 154L372 157Q380 157 396 147T415 130L426 133L438
169ZM382 95Q346 95 337 102Q284 107 248 152T211 251Q211 262 217 284T223 318Q223 334 210 348Q185 339 145 300T105 238Q105 88 273 80L279 75L287 81Q317 81 382 95Z" />
<glyph unicode="&apos;" glyph-name="quotesingle" horiz-adv-x="405" d="M353 640Q353 614 289 542T201 469Q185 469 174 492Q165 511 165 529Q165 553 208 624T270 695Q301 695 324 683Q353 668 353 640Z" />
<glyph unicode="(" glyph-name="parenleft" horiz-adv-x="357" d="M309 632Q309 616 289 602Q271 592 254 582Q196 543 151 447T106 276Q106 218 137 161Q154 129 193 81Q224 43 224 30Q224 -7 174 -7Q161 -7 123 48Q72 123 52 167Q23 232 23 303Q23 349 37 400Q46
431 64 494Q67 503 97 538Q107 550 136 594Q154 622 192 653Q236 690 248 690Q268 690 288 671T309 632Z" />
<glyph unicode=")" glyph-name="parenright" horiz-adv-x="388" d="M337 246Q337 191 307 108Q272 11 228 11H209Q194 11 179 38T165 81Q206 113 229 167T253 275Q253 366 205 463Q162 551 91 621Q50 662 50 703Q50 726 63 726Q90 726 127 687Q133 681 178 626Q237
553 284 446Q337 326 337 246Z" />
<glyph unicode="*" glyph-name="asterisk" horiz-adv-x="544" d="M511 341Q511 330 492 323T459 315Q436 315 391 318T322 322Q345 301 391 258Q441 210 441 191Q441 160 400 160Q383 160 291 249Q290 239 292 221T294 196Q294 157 271 157Q251 157 231 178T208
221T202 270Q195 262 179 216Q165 176 155 176Q137 176 116 200T94 244Q94 279 137 333V340L131 339Q108 339 77 360T46 402Q46 425 75 425Q86 425 109 421T143 416Q152 416 158 418Q141 443 117 485Q88 537 88 550Q101 571 108 571Q116 571 120 565L126 571Q151
557 169 529Q189 497 199 489V494Q199 516 192 601Q205 613 217 613Q257 613 272 571Q279 551 282 495Q305 517 331 541Q370 577 379 577Q391 577 407 563T423 536Q423 526 371 475Q314 419 307 405Q312 399 336 398Q351 397 378 399T417 401Q448 401 483 387Q490
379 503 368Q511 346 511 341Z" />
<glyph unicode="+" glyph-name="plus" horiz-adv-x="632" d="M609 429Q609 423 603 405Q566 391 494 389Q415 386 384 380V377Q384 337 404 261T424 144Q424 134 413 125T392 115Q386 115 361 128Q350 150 340 171Q334 183 329 277Q324 364 312 379Q292 381 282
381Q247 381 179 367T77 352Q46 352 37 373Q36 375 28 421Q87 453 199 453Q209 453 228 458T258 464Q266 464 270 455L281 462L297 461Q302 472 302 484Q302 491 296 496Q275 637 275 685Q275 692 282 714Q290 710 298 712Q341 681 354 601Q359 535 365 470Q414
477 436 477Q444 477 447 475Q456 477 462 477Q472 477 474 471L477 475Q537 486 553 486Q568 486 588 465T609 429Z" />
<glyph unicode="," glyph-name="comma" horiz-adv-x="267" d="M235 79Q235 -6 129 -64Q104 -64 62 -27V-13Q89 0 111 26T133 80Q133 85 131 95T129 111Q129 122 146 130T176 139Q200 139 217 121T235 79Z" />
<glyph unicode="-" glyph-name="hyphen" horiz-adv-x="797" d="M502 330Q502 314 489 299T461 283Q423 283 358 298L255 322Q193 336 193 392Q223 407 234 407Q257 407 356 393T470 373Q479 369 490 354T502 330Z" />
<glyph unicode="." glyph-name="period" horiz-adv-x="217" d="M173 64Q173 47 159 29T127 11Q104 11 75 35T45 82Q45 104 61 119T100 135Q130 135 151 115T173 64Z" />
<glyph unicode="/" glyph-name="slash" horiz-adv-x="560" d="M478 781L470 785L478 793V781ZM549 680Q531 656 501 630L449 584Q418 554 373 502Q310 430 298 417L217 333Q169 282 142 243Q131 219 109 172Q85 121 66 121Q53 121 34 142T14 176Q14 214 88 307Q133
364 298 540Q478 732 493 732Q513 732 531 716T549 680Z" />
<glyph unicode="0" glyph-name="zero" horiz-adv-x="618" d="M577 383Q577 287 484 152Q386 9 296 9Q225 9 183 35T104 127Q47 227 47 308Q47 402 143 525Q243 654 333 654Q390 654 419 592L441 590L443 584Q445 584 450 585T457 586Q464 586 492 568Q577 513
577 383ZM509 409Q509 489 469 521Q433 550 351 550Q306 550 306 567L313 577H302Q243 546 175 451Q105 352 105 290Q105 227 156 150Q211 67 270 67Q345 67 430 201Q509 326 509 409Z" />
<glyph unicode="1" glyph-name="one" horiz-adv-x="210" d="M153 65Q153 38 150 30Q144 13 124 13Q80 13 67 83Q61 115 61 187Q61 220 63 281L66 364L67 558Q67 580 64 624T61 690Q68 693 76 693Q100 693 127 664Q137 639 137 287V286L138 281L139 263L144 184Q145
168 149 125T153 65Z" />
<glyph unicode="2" glyph-name="two" horiz-adv-x="450" d="M430 82Q430 66 417 51Q282 29 240 29Q214 29 162 17T84 5Q62 5 45 20T27 58Q69 103 153 194Q338 399 338 531Q338 595 264 595Q212 595 162 551Q134 527 77 475Q64 475 51 490T37 519Q37 535 70 569Q125
626 163 644Q207 665 280 665Q346 635 369 610Q400 576 400 511Q400 429 318 302Q276 237 178 115L181 113Q213 113 275 120T370 127Q386 127 408 112T430 82Z" />
<glyph unicode="3" glyph-name="three" horiz-adv-x="525" d="M480 608Q480 593 403 515Q336 448 303 421Q400 336 413 322Q474 256 474 193Q474 118 375 61Q289 11 207 11Q190 11 142 43L138 82Q165 85 219 95Q233 101 262 110Q273 107 272 107Q281 107 278 115Q314
125 354 152Q403 185 403 212Q403 222 379 247T343 275Q291 288 230 346Q163 410 164 461V460L162 448Q162 454 164 460V463V463V461Q169 477 197 494Q218 506 240 518Q256 532 286 559L271 560Q238 562 179 553Q115 543 88 543Q70 543 59 561T48 598Q48 621 62
628Q73 634 136 636L216 639Q247 640 315 652Q379 663 414 663Q430 663 455 643T480 608Z" />
<glyph unicode="4" glyph-name="four" horiz-adv-x="468" d="M416 559Q416 501 404 415Q397 367 384 271Q381 234 370 139Q356 31 326 31Q290 31 290 91Q290 190 309 286Q286 294 181 298Q88 302 69 316T50 376Q50 388 76 513T105 642Q110 650 119 650Q134 650
147 631T161 595Q161 563 147 500T133 404V402Q196 394 322 381Q331 401 339 477Q346 543 346 579Q346 590 340 612T333 645Q333 650 335 659T337 674Q344 678 352 678Q385 678 402 633Q416 598 416 559Z" />
<glyph unicode="5" glyph-name="five" horiz-adv-x="463" d="M431 249Q431 199 371 108L271 48Q209 15 163 15Q35 15 36 89L44 83L50 86Q82 55 130 55Q188 55 279 134T371 269Q371 287 340 302Q314 315 293 315Q287 315 286 310Q238 306 206 306Q130 306 99 361Q75
403 75 485Q75 502 76 537T78 589Q78 629 70 654Q85 667 106 667Q163 667 263 644Q385 616 385 583Q385 563 353 563Q322 563 262 578T171 593Q163 593 159 585Q157 556 157 426L152 419Q152 387 170 364Q186 364 216 365T263 367Q330 367 375 342Q431 311 431
249Z" />
<glyph unicode="6" glyph-name="six" horiz-adv-x="407" d="M374 162Q374 116 332 63Q289 7 244 7Q176 7 119 61Q66 110 47 179Q34 227 34 233Q34 255 41 289Q49 328 59 340Q71 422 126 525Q191 647 256 647Q277 647 294 633T316 597Q307 586 287 586Q237 586
179 465Q131 365 120 293L121 289Q161 297 198 297Q259 297 313 260Q374 220 374 162ZM300 166Q300 198 277 220T222 242Q172 242 114 208Q114 155 141 111Q172 59 222 59Q248 59 275 100Q300 138 300 166Z" />
<glyph unicode="7" glyph-name="seven" horiz-adv-x="377" d="M382 578Q382 577 337 454Q291 328 287 313Q240 149 225 107Q189 6 174 6Q162 6 134 10L127 47Q127 103 276 548H272L258 547H103Q56 547 36 557Q8 572 2 614Q16 627 28 627Q45 627 77 623T127 618Q161
618 229 619T332 621Q347 621 364 607T382 578Z" />
<glyph unicode="8" glyph-name="eight" horiz-adv-x="564" d="M525 236Q525 155 427 78Q335 5 251 5Q129 5 86 85Q71 113 71 127Q71 174 104 235Q131 284 170 329L165 336Q163 336 158 335T150 333Q103 333 71 380Q41 422 41 471Q41 481 59 523Q76 562 85 574T128
607T176 627Q178 627 183 626T190 624Q200 624 203 641Q235 658 267 658Q304 658 351 603T399 510Q399 448 355 412Q426 393 471 352Q525 303 525 236ZM322 513Q322 550 295 574Q286 582 237 611H226Q226 594 219 568Q212 561 191 554T161 539Q141 522 127 490T112
430Q112 391 150 391Q195 391 256 429Q322 471 322 513ZM461 262Q461 279 441 305T404 337T355 355Q350 362 335 373Q325 373 318 369L320 376L314 379Q305 379 297 368Q307 367 317 355T328 333Q328 314 313 310Q312 311 308 311H283Q247 311 195 226Q146 146
146 105Q146 64 227 64Q238 64 287 74Q346 86 365 100T418 165Q461 231 461 262ZM313 310Q313 309 312 310H313Z" />
<glyph unicode="9" glyph-name="nine" horiz-adv-x="468" d="M414 560Q414 517 402 434T388 311Q388 267 385 153Q380 16 355 16Q350 13 346 10Q340 13 330 13Q315 26 296 51Q296 203 302 356Q266 334 223 334L216 328Q204 328 181 334T146 340Q48 381 48 488Q48
518 78 566T136 631H141L153 645L160 639Q200 660 227 660Q274 660 343 608Q353 611 355 611Q375 611 394 595T414 560ZM326 517Q326 532 294 561T246 590Q205 590 160 544T115 456Q115 426 134 406T184 385Q221 385 273 433T326 517Z" />
<glyph unicode=":" glyph-name="colon" horiz-adv-x="409" d="M438 789H281V794H438V789ZM277 789H217V794H277V789ZM204 789H195V794H204V789ZM176 789H159V794H176V789ZM110 521Q110 489 51 489Q28 489 1 514T-27 562Q-17 587 -17 592Q-14 592 -8 593T2 595Q26
595 66 570Q110 542 110 521ZM128 183Q128 161 113 147T75 133Q53 133 19 155Q-18 178 -18 198Q-18 226 1 245T48 264Q57 264 54 258Q128 231 128 183Z" />
<glyph unicode=";" glyph-name="semicolon" horiz-adv-x="268" d="M166 524Q166 508 153 486Q138 461 124 461Q88 461 62 487T35 550Q35 567 47 578T76 589Q82 589 83 584L90 585Q114 585 140 566T166 524ZM236 87Q236 43 201 19Q172 -1 125 -1Q102 -1 80 13T48
49V66Q101 66 118 69Q164 77 164 111Q164 114 163 118Q149 118 131 124Q108 132 100 133L94 130Q66 183 66 198Q66 208 83 225T110 242Q115 242 123 238T137 233Q141 233 148 236T160 239Q188 239 198 219Q202 211 209 174Q236 147 236 87Z" />
<glyph unicode="&lt;" glyph-name="less" horiz-adv-x="553" d="M544 91Q544 54 498 54Q478 64 251 156Q188 179 125 201Q44 235 26 280Q16 305 16 313Q32 324 51 355T84 398Q115 425 155 468Q166 472 228 521T292 578Q304 580 341 607T384 634L388 631H390Q458
698 485 698Q505 698 523 675T542 632Q542 625 522 611Q468 602 310 474Q156 348 126 294Q161 269 234 245Q313 220 342 202Q351 195 370 185L371 187L375 188Q406 187 471 156Q544 121 544 91Z" />
<glyph unicode="=" glyph-name="equal" horiz-adv-x="631" d="M676 789H595V794H676V789ZM591 789H562V794H591V789ZM554 789H528V794H554V789ZM491 789H473V794H491V789ZM412 443Q412 410 388 410Q342 410 250 416T111 423Q32 423 32 486Q32 496 38 509T52 522Q73
522 116 517T182 511L239 512Q307 513 367 508Q382 507 397 484T412 443ZM502 243Q502 239 500 231Q483 215 476 215Q473 215 467 217T459 220Q280 247 11 247Q-44 247 -44 305Q-44 334 37 334Q54 334 77 333L100 331L114 325L126 331L135 325Q143 325 160 327T185
329Q235 329 326 325Q436 320 459 314Q474 310 488 285T502 243Z" />
<glyph unicode="&gt;" glyph-name="greater" horiz-adv-x="522" d="M543 789H326V794H543V789ZM322 789H311V794H322V789ZM307 789H299V794H307V789ZM274 789H260V794H274V789ZM505 391Q505 363 346 248L143 100Q115 73 55 23L52 26H49L36 17Q-14 67 -14 82Q-14
102 108 194Q119 202 251 292Q338 352 386 400L205 498Q107 552 33 609Q-1 635 -1 673Q-1 699 18 699Q35 699 120 645Q279 544 421 470Q505 426 505 391Z" />
<glyph unicode="?" glyph-name="question" horiz-adv-x="366" d="M392 619Q392 584 336 541Q301 516 233 463Q177 417 177 370Q177 340 204 281T231 193Q231 178 222 175Q221 174 220 175Q221 175 222 176Q221 177 217 177H199V172L196 171Q165 171 134 270Q107
356 107 401Q107 452 155 500Q172 517 249 571Q304 609 313 636Q280 669 170 669Q119 669 87 644Q52 617 52 567Q52 555 58 532T64 497Q64 469 48 469Q20 469 3 523Q-11 566 -11 602Q-11 636 0 664V657H5V665H0Q32 744 122 744L139 738L151 744L158 738L174 741Q208
741 265 723Q318 707 351 688L353 680Q369 678 380 658T392 619ZM255 61Q255 42 236 31Q219 24 201 16Q185 16 167 35T149 71Q149 104 196 104Q216 104 235 92T255 61Z" />
<glyph unicode="@" glyph-name="at" horiz-adv-x="693" d="M662 444Q662 393 600 328T486 263Q464 263 448 272L416 290Q390 276 336 251Q307 251 276 276T244 331Q244 375 281 433Q322 496 363 496Q389 496 418 477Q450 455 450 431Q450 425 443 417T430 408Q410
408 383 435Q364 435 337 398T310 340V311Q340 314 374 342Q393 358 430 390Q440 390 458 379T477 358Q477 356 465 325L467 323Q514 323 554 380Q592 432 592 481Q592 525 585 542Q576 568 542 586T475 605Q354 605 231 508Q101 405 101 288Q101 227 156 195Q182
180 263 159L282 154Q341 154 415 169Q428 172 461 183Q490 193 509 193Q541 193 541 176Q541 169 515 152T480 135L472 138Q471 134 394 114Q348 102 321 102Q223 102 135 153Q32 213 32 304Q32 368 60 414Q76 440 118 483Q154 520 163 543Q187 553 226 575Q235
598 284 609L283 613L288 617Q290 614 291 611L300 621Q401 653 436 653Q462 653 473 650L479 644L488 650Q531 634 576 605Q634 567 641 539Q645 518 656 464Q662 435 662 444Z" />
<glyph unicode="A" glyph-name="A" horiz-adv-x="483" d="M496 3L492 -4H418L409 3Q409 7 410 15T411 28Q411 42 315 280Q236 266 215 262Q137 246 127 234Q115 219 83 101Q56 -1 31 -1Q17 5 -8 17Q-9 37 91 363Q190 686 204 714Q208 722 231 721Q253 711 280
679Q304 650 330 481Q335 448 377 324Q384 300 403 237Q435 159 496 3ZM290 350V363Q290 375 283 393Q274 417 273 423Q270 439 244 585Q187 429 158 326L290 350Z" />
<glyph unicode="B" glyph-name="B" horiz-adv-x="474" d="M430 196Q430 144 406 114Q386 88 334 63Q264 29 219 29L218 33L213 35L207 32Q187 32 152 47Q113 63 109 79Q80 194 72 381Q71 428 67 522Q63 599 45 660Q49 679 62 684Q69 680 84 675Q133 705 162 705Q213
705 266 653Q314 605 331 552Q333 547 347 517Q357 497 357 479Q357 451 336 419T290 376Q366 317 382 300Q430 250 430 196ZM284 499Q284 545 252 592Q218 644 174 644Q164 644 144 632T124 611Q124 596 128 568T134 528Q136 497 140 415Q168 411 184 411Q219
411 251 438T284 499ZM366 202Q366 254 316 298Q269 339 216 346Q196 348 145 353V325Q145 269 185 87H204Q244 87 303 124Q366 165 366 202Z" />
<glyph unicode="C" glyph-name="C" horiz-adv-x="420" d="M395 555Q395 535 375 535Q363 535 341 550T298 566Q217 566 151 456Q92 357 92 269Q92 234 107 195Q136 119 209 98Q213 98 327 85Q383 79 383 37L382 26Q359 20 310 20Q282 20 251 35Q247 34 243 32Q228
32 211 41T177 59Q25 131 25 276Q25 381 100 496Q183 623 282 623Q315 623 352 605Q395 584 395 555Z" />
<glyph unicode="D" glyph-name="D" horiz-adv-x="501" d="M459 321Q459 257 393 193Q359 159 300 127Q233 91 192 91Q183 91 174 93Q174 68 172 61Q168 51 149 38Q102 38 92 89Q90 113 83 175Q71 276 56 556Q55 568 50 593T45 633Q45 659 75 673Q98 684 128 684Q161
684 234 652Q320 614 389 515Q459 413 459 321ZM392 357Q392 432 330 510Q271 585 198 610Q166 621 158 621Q143 621 121 608Q133 568 134 510Q133 537 133 411Q133 351 164 153Q242 171 311 224Q392 287 392 357Z" />
<glyph unicode="E" glyph-name="E" horiz-adv-x="365" d="M339 102Q338 76 320 70Q294 61 220 51Q150 42 116 42Q102 42 83 49T58 67T39 282Q27 472 27 517Q27 629 53 629Q62 629 71 621L86 608Q115 608 171 627T256 647Q273 647 297 629T321 594L317 587Q155
560 94 521V506Q94 490 97 458T100 410Q100 387 94 377Q169 387 198 387Q219 387 239 377Q263 365 263 346Q263 327 193 312Q150 304 106 297Q117 200 135 120Q181 129 275 129Q303 129 312 126Q326 121 339 102Z" />
<glyph unicode="F" glyph-name="F" horiz-adv-x="351" d="M377 588Q377 572 351 570L358 571Q343 572 314 572Q274 572 214 557Q140 539 115 537T85 491Q83 480 83 429V359Q89 354 96 354Q113 354 147 361T199 369Q219 369 240 358Q264 344 264 326Q264 301 186
282Q182 281 85 264Q101 124 101 95Q101 20 61 20Q49 20 30 33T10 58Q10 61 15 70Q25 89 25 135Q25 206 15 279Q9 293 1 320Q5 329 13 337V440Q13 454 17 483T22 526Q22 534 15 549T7 573Q13 579 24 592Q31 626 40 626Q43 626 57 618T75 608Q97 612 186 630Q255
644 298 644Q323 644 348 629Q377 612 377 588Z" />
<glyph unicode="G" glyph-name="G" horiz-adv-x="593" d="M559 244L558 233Q549 223 525 219T498 213Q498 210 501 202T504 190Q504 177 497 152T489 113Q489 84 406 26Q372 2 328 -5Q303 -9 244 -9Q161 -9 94 71Q31 147 31 232Q31 283 55 357Q80 436 111 470Q124
481 133 492Q282 669 379 669Q422 669 456 631T491 549Q491 508 420 508Q405 513 401 531Q412 544 431 573Q431 583 419 589T395 596Q355 596 300 558Q209 495 153 402Q92 302 92 198Q92 201 96 182Q124 51 257 51Q314 51 374 91Q439 134 444 188L446 212Q380 218
313 223Q219 240 219 285Q219 301 226 307Q271 320 323 320Q347 320 394 311T466 302Q473 302 485 303T505 305Q527 305 543 286T559 244Z" />
<glyph unicode="H" glyph-name="H" horiz-adv-x="521" d="M482 334Q482 319 464 306Q448 298 433 289Q451 166 451 104Q451 90 446 66Q440 36 432 36L424 42Q407 39 409 39Q381 39 364 61Q373 92 373 128Q373 156 368 203Q363 259 362 277L355 285Q301 282 173
282Q166 282 151 279T129 276L153 -7H100L75 16Q40 337 40 456L39 590Q40 673 50 722L58 723Q102 723 113 683Q117 668 117 605Q117 586 116 549T114 493Q114 394 125 349Q200 350 348 357Q340 390 335 452Q329 521 325 547Q323 557 313 604Q305 640 305 661Q305
683 328 683Q385 683 399 563Q403 508 412 398Q415 366 427 367Q429 367 432 368T438 370Q449 370 465 357T482 334Z" />
<glyph unicode="I" glyph-name="I" horiz-adv-x="235" d="M195 36Q180 23 169 23L155 29Q121 29 110 70Q107 97 100 137Q63 363 53 555Q52 568 47 599Q43 627 43 644Q43 669 76 669Q93 669 107 652T124 616Q131 573 134 484T142 352Q151 270 195 36Z" />
<glyph unicode="J" glyph-name="J" horiz-adv-x="426" d="M413 602Q406 598 398 587Q361 586 299 580Q289 578 289 574Q289 568 302 505Q304 494 329 401Q346 337 346 296Q346 281 357 245T368 191Q368 133 312 77T197 20H173Q24 91 24 238Q24 258 48 258Q58 258
101 181Q147 98 173 84Q226 94 265 132T304 223Q304 348 222 579L101 597Q18 617 18 662Q18 677 40 677Q93 657 140 654Q124 655 241 655Q327 655 342 653Q412 643 413 602Z" />
<glyph unicode="K" glyph-name="K" horiz-adv-x="487" d="M464 69Q464 45 432 45Q423 45 363 93Q293 150 290 152Q256 174 188 219Q188 219 116 273Q116 245 122 189T129 105Q129 63 99 63Q49 63 49 120Q49 139 49 139Q50 163 50 157Q50 200 41 286T32 415V581Q32
587 29 598T26 615Q26 635 44 635Q69 635 88 608T107 554Q107 543 102 533Q109 515 108 481Q107 442 110 428L254 514Q343 567 364 628L376 641Q400 638 416 623T433 585Q433 572 384 524Q343 484 323 469Q289 449 221 408Q141 360 141 344Q141 321 225 269Q363
183 380 171Q464 110 464 69Z" />
<glyph unicode="L" glyph-name="L" horiz-adv-x="405" d="M411 100Q355 100 247 73T83 45Q-2 45 -2 124Q-2 221 16 416T35 711Q35 726 57 726Q83 726 100 691Q114 663 114 633Q114 572 87 312Q77 216 77 202V130H99Q142 130 224 156T349 182Q366 182 387 170T411
140V100Z" />
<glyph unicode="M" glyph-name="M" horiz-adv-x="680" d="M645 46Q645 37 643 18Q628 2 621 2Q599 2 581 18T562 56Q562 139 513 324Q483 436 457 586L453 591Q440 553 419 467Q397 373 397 346Q397 316 385 256Q372 191 360 171Q355 163 326 152Q298 152 243
267Q239 276 178 417L161 179Q141 -7 106 -7Q84 -7 62 23T39 77Q39 85 52 103L68 91Q92 134 106 376Q119 604 138 616Q155 608 181 590Q233 458 303 286Q321 319 338 423L363 571Q373 613 433 747Q457 747 478 726Q496 707 502 682Q530 562 603 251Q612 217 630
150Q645 93 645 46Z" />
<glyph unicode="N" glyph-name="N" horiz-adv-x="540" d="M477 178Q477 112 457 31Q438 20 430 20Q420 20 402 37T378 66Q351 122 285 270Q266 320 215 447L181 238Q148 42 118 42H104Q92 42 79 62T65 96Q67 106 79 141L97 195Q152 397 152 543Q152 557 150 583T148
624Q148 657 166 657Q191 647 212 623Q223 577 278 455Q328 343 332 307Q346 290 366 235Q387 176 400 157Q405 165 406 176Q406 182 405 195T404 214Q404 227 408 252T413 291Q413 336 409 426T404 561Q404 583 394 627T383 693Q383 717 398 717Q449 717 464 563Q470
502 470 367Q470 335 473 273T477 178Z" />
<glyph unicode="O" glyph-name="O" horiz-adv-x="600" d="M556 251Q556 177 463 112Q377 52 299 52H257Q255 52 209 65Q149 82 108 130T55 240T44 300Q44 387 87 499Q138 631 206 645Q211 650 219 650Q262 650 302 632Q327 620 379 595L386 598L420 578Q479 543
520 431Q556 333 556 251ZM484 296Q484 347 456 429Q425 518 389 542L384 540Q382 532 383 521Q370 507 358 507Q318 507 279 570Q246 577 238 577Q187 577 151 449Q123 348 123 278Q123 203 160 158Q200 109 273 109Q348 109 414 164Q484 223 484 296Z" />
<glyph unicode="P" glyph-name="P" horiz-adv-x="495" d="M478 439Q478 394 377 341Q284 292 232 292Q218 292 168 312Q163 321 156 341Q151 332 151 321Q151 272 175 111Q185 44 185 40Q185 31 175 23T156 14Q145 14 127 25T100 46Q89 60 66 326Q44 585 21 595Q15
603 15 610Q15 630 51 644Q80 656 104 656L113 649L122 653Q195 653 331 580Q478 501 478 439ZM389 468Q389 499 275 545Q169 588 125 588Q113 588 106 584Q120 540 130 469Q143 380 149 354H162Q206 354 293 392Q389 434 389 468Z" />
<glyph unicode="Q" glyph-name="Q" horiz-adv-x="686" d="M652 -7H586Q562 21 541 43Q504 83 492 84Q381 42 331 42Q215 42 128 107Q32 178 32 290Q32 349 75 421Q90 447 157 536Q172 539 219 571Q221 568 222 565L229 576Q223 578 223 591Q223 611 238 624T273
638Q380 638 413 609L415 598L468 563Q495 543 514 519Q516 507 550 467Q571 442 596 368T622 259Q622 170 552 125Q653 42 652 -7ZM542 288Q542 359 499 439T397 554Q346 583 317 580Q314 580 309 579T301 577Q296 577 288 580T275 583L266 575Q297 570 328 545Q363
518 363 489Q363 471 342 471Q329 471 311 489T282 507Q223 507 164 414Q108 326 108 264Q108 188 169 146Q222 109 302 109Q368 109 421 143Q403 157 365 186T327 232Q327 252 348 252Q367 252 414 222Q436 208 480 179Q504 179 524 222Q542 260 542 288Z" />
<glyph unicode="R" glyph-name="R" horiz-adv-x="483" d="M496 69Q496 39 461 39Q453 39 451 47Q308 134 276 155Q179 220 116 283L115 271Q111 227 135 149Q160 66 160 28Q160 22 154 -7H97Q88 2 76 25Q74 48 65 126Q63 147 47 225Q38 271 35 337Q29 444 29 450Q22
539 13 568Q5 580 -7 607Q28 659 142 659Q157 659 170 643Q173 646 177 649Q256 633 336 586Q438 527 438 465Q438 407 208 320H181L176 315Q194 294 353 188Q496 93 496 69ZM356 494Q356 521 262 557Q178 589 139 589Q104 589 75 578Q95 511 103 378L121 375L196
396Q197 394 197 392L200 390Q228 411 247 410Q268 423 309 450Q356 481 356 494Z" />
<glyph unicode="S" glyph-name="S" horiz-adv-x="532" d="M497 202Q497 117 416 64Q348 20 255 14Q250 14 239 11T221 8Q182 8 142 20Q88 36 88 65V87H114Q126 79 157 79Q229 79 319 111Q430 150 430 207Q430 240 325 301Q257 337 190 373Q185 380 178 386Q39
502 39 581Q39 596 53 616T82 637L85 634L86 631L92 642Q120 656 172 656Q181 656 194 651L215 643L222 649Q263 649 335 590T408 492Q408 469 387 469Q378 469 351 499Q317 537 290 555Q245 585 192 585Q109 585 109 546Q109 509 191 441Q261 383 312 361Q408
319 465 258Q497 224 497 202Z" />
<glyph unicode="T" glyph-name="T" horiz-adv-x="618" d="M618 550Q618 512 531 512Q496 512 380 521Q371 339 371 294Q371 254 384 175T398 56Q398 34 385 24H370Q364 24 346 36T326 55Q319 73 310 148Q301 220 301 245V385Q301 388 306 524Q273 534 166 537Q65
539 51 549Q44 554 17 605Q17 628 40 628Q43 628 134 620Q137 618 143 615Q216 615 280 611Q320 608 358 605Q388 603 388 603Q401 603 415 594L421 600Q488 594 522 594Q528 594 539 597T557 600Q573 600 595 583T618 550Z" />
<glyph unicode="U" glyph-name="U" horiz-adv-x="622" d="M560 449Q560 324 550 271Q530 166 465 123Q418 92 399 85Q372 75 322 75Q272 75 202 127Q140 174 108 222Q60 295 60 367Q60 418 75 489Q93 575 119 598L126 591Q136 589 151 576T167 553Q159 540 146
513Q139 492 132 445T124 375Q124 287 171 225Q223 158 309 158Q311 156 315 155Q394 155 442 224Q483 283 488 367Q488 373 492 384T496 401V501Q496 514 489 538T481 576Q481 584 485 591L495 598Q560 559 560 449Z" />
<glyph unicode="V" glyph-name="V" horiz-adv-x="663" d="M610 530Q610 494 601 431Q591 358 589 332Q588 241 586 150Q577 -1 538 -1Q478 -1 314 241Q258 324 118 554Q56 656 56 664Q56 682 73 690Q130 679 157 633Q208 545 310 368Q402 210 489 121Q497 222
520 423Q516 436 516 445Q516 440 520 466Q522 479 522 572Q522 609 523 611Q529 626 557 626Q610 626 610 530Z" />
<glyph unicode="W" glyph-name="W" horiz-adv-x="725" d="M714 559Q714 557 696 499Q669 411 636 222L616 110Q595 17 572 17Q567 17 558 19T545 21Q513 24 451 158Q426 216 374 332L373 328Q373 307 376 265T379 202Q379 149 345 149Q302 149 223 265Q172 339
109 465Q33 617 33 672Q33 689 53 689Q78 689 99 669Q108 660 146 567Q191 457 196 447Q209 419 237 364Q257 324 286 286Q287 306 287 333Q287 365 285 428T283 524Q283 588 309 588Q354 588 387 521Q397 500 425 416L473 270L481 264Q500 215 524 164Q533 165
552 267Q587 457 637 584L635 593Q659 607 667 607Q681 607 697 590T714 559Z" />
<glyph unicode="X" glyph-name="X" horiz-adv-x="554" d="M552 578Q552 567 513 539Q504 532 463 471Q428 431 363 346Q393 313 454 247Q531 160 531 129Q522 112 497 112Q478 112 409 190Q387 215 322 292Q161 93 127 -7H69Q57 -7 42 6Q58 70 137 186Q154 210
262 358Q18 637 18 654Q18 671 32 677Q71 677 146 591Q178 551 244 472Q260 455 301 411Q322 423 402 526Q474 619 500 619Q514 619 533 605T552 578Z" />
<glyph unicode="Y" glyph-name="Y" horiz-adv-x="590" d="M626 676Q626 646 556 474Q500 337 465 253Q465 222 475 162T486 71Q486 51 481 45T455 39Q440 48 411 67Q409 81 401 165Q396 225 382 262Q379 271 171 429Q-31 583 -31 618Q-31 641 -12 641Q16 641 50
612Q106 563 217 465Q315 380 399 337Q444 405 489 528Q549 693 563 726L570 724L573 714L579 726L586 720V719L591 717L595 722Q617 706 619 705Q626 696 626 676Z" />
<glyph unicode="Z" glyph-name="Z" horiz-adv-x="771" d="M772 104Q767 94 759 74Q746 69 601 58L426 44Q392 40 319 24Q251 9 212 8Q155 51 155 59Q155 73 338 267Q525 465 540 512Q495 512 405 516T270 521Q236 521 168 515T65 509Q49 509 26 528T3 564Q3 569
15 587Q40 588 105 588Q118 588 142 593T180 598Q241 598 361 593T543 588Q554 588 576 591T609 595Q630 595 649 580T668 543Q668 518 608 448Q581 417 526 356Q524 345 520 336L308 108Q316 106 322 106Q344 106 380 114Q429 125 437 126Q597 149 706 149Q730
149 772 104Z" />
<glyph unicode="[" glyph-name="bracketleft" horiz-adv-x="326" d="M303 78Q303 66 294 56T272 45H153Q129 45 106 60Q92 70 64 89Q50 123 47 276L43 481Q43 487 40 497T36 514Q36 523 41 529Q24 551 24 642V644L25 654L28 688Q50 693 90 694Q135 696 153 699Q159
700 175 707T199 714Q216 714 237 695T258 658Q258 661 242 633Q192 621 114 616Q103 603 103 582Q103 551 115 489T127 396V292Q127 262 134 209Q141 151 142 126L214 130Q243 130 270 118Q303 104 303 78Z" />
<glyph unicode="\" glyph-name="backslash" horiz-adv-x="679" d="M727 789H598V794H727V789ZM570 789H553V794H570V789ZM458 108Q458 72 419 72Q397 72 334 155Q298 203 160 395Q53 545 -20 631Q-48 664 -48 682Q-48 687 -43 693T-33 699Q-4 699 19 681Q57 651
143 519Q200 431 231 395Q269 352 345 265Q409 191 451 131Q458 121 458 108Z" />
<glyph unicode="]" glyph-name="bracketright" horiz-adv-x="398" d="M373 789H362V794H373V789ZM358 789H225V794H358V789ZM209 789H201V794H209V789ZM185 789H168V794H185V789ZM34 789H25V794H34V789ZM346 111Q346 77 343 65Q336 38 311 38Q292 38 255 50T199
63L196 60H193Q166 72 153 80L138 82Q132 91 122 109Q122 129 146 129Q168 129 206 122Q248 115 265 114Q266 139 266 145Q266 174 256 235T244 325Q238 423 229 534L225 590Q209 590 178 587T131 584Q114 584 96 605T77 643Q77 653 83 664Q195 678 237 678Q277
678 293 650Q303 629 304 585Q305 473 334 222L346 111Z" />
<glyph unicode="^" glyph-name="asciicircum" horiz-adv-x="576" d="M618 789H610V794H618V789ZM596 789H585V794H596V789ZM479 286Q479 272 461 263Q447 256 431 256Q421 256 414 266Q385 310 304 421L188 567Q179 556 152 468Q140 429 89 350Q32 262 8 262Q-5
262 -22 282T-40 316Q-31 337 -12 364Q4 386 20 409Q79 497 116 620Q119 637 125 672Q132 703 159 702Q179 693 206 673Q229 634 244 612T373 442Q479 304 479 286Z" />
<glyph unicode="_" glyph-name="underscore" horiz-adv-x="570" d="M611 -41Q611 -62 597 -69Q572 -81 291 -81Q238 -81 141 -91Q36 -102 -8 -104Q-34 -51 -34 -44Q-34 -34 -16 -17Q-9 -18 0 -18Q35 -18 104 -6T209 6L212 1L215 0Q222 0 234 3T252 8Q273 11 316
9Q365 7 381 7Q410 7 467 14T553 21Q568 21 589 -2T611 -41Z" />
<glyph unicode="`" glyph-name="grave" horiz-adv-x="382" d="M322 524Q322 515 313 505T295 494Q280 494 259 512Q195 566 143 599Q116 616 80 644Q52 672 52 702Q55 703 62 703Q69 703 82 699T99 694L116 700Q136 696 151 693Q178 687 318 547Q322 533 322 524Z" />
<glyph unicode="a" glyph-name="a" horiz-adv-x="562" d="M528 19Q528 -7 501 -7Q464 -7 449 20Q440 37 435 80T423 140Q337 33 226 33Q213 33 193 38Q169 45 160 46L161 52L157 54V50L154 48Q147 48 86 92Q75 111 53 149Q37 179 37 211Q37 298 92 364Q150 435
235 435Q247 435 268 427T302 419L305 422H308Q325 422 358 402T403 366Q447 367 462 329Q465 322 474 253Q478 225 504 131Q528 45 528 19ZM397 247Q397 269 389 303Q369 309 341 342Q317 370 273 370Q202 370 155 324T107 207Q107 170 122 133Q142 85 172 85H209Q267
85 330 137Q397 191 397 247Z" />
<glyph unicode="b" glyph-name="b" horiz-adv-x="464" d="M427 247Q427 151 374 87T226 4Q171 -7 166 -7Q143 -7 104 9T48 43Q44 54 38 75Q50 75 74 69T110 63Q172 63 240 90Q317 120 344 166Q360 193 360 272Q360 364 298 364Q268 364 235 327Q227 318 189 264Q185
259 158 175Q135 106 117 106Q95 106 76 120T55 156Q41 297 41 459V492L44 667Q45 747 67 747Q116 747 116 676Q116 639 114 564T111 452Q111 378 122 321Q140 345 176 390Q212 431 250 431Q335 431 381 382T427 247Z" />
<glyph unicode="c" glyph-name="c" horiz-adv-x="431" d="M461 24Q418 11 322 11L312 5Q305 7 292 11Q275 8 277 8Q282 8 237 17L229 11Q209 11 143 34Q88 53 61 74Q52 81 -5 135Q-5 150 -5 151Q-7 156 -17 156T-27 173Q-27 189 -20 244T-8 307Q20 356 64 392Q117
436 164 436Q274 436 343 389Q385 360 385 344Q385 320 351 320Q344 320 288 350T206 381Q136 381 94 327Q55 278 55 206Q55 116 141 86Q190 69 302 69Q320 69 356 74T411 79Q461 79 461 24Z" />
<glyph unicode="d" glyph-name="d" horiz-adv-x="504" d="M457 91Q457 71 450 61L443 67Q439 57 425 57Q423 57 399 64Q382 78 374 98Q371 105 363 140Q348 97 315 58Q276 11 238 11H189Q187 11 169 18T146 26L140 24Q113 33 80 81T46 157V281Q66 333 77 354Q103
404 128 405V401L131 399Q135 398 136 403Q137 406 136 410Q167 427 171 428Q184 433 207 433Q233 433 258 423L307 402Q304 450 274 553Q246 649 246 704Q246 722 261 722L267 716L281 722Q333 722 350 614Q361 543 398 383Q410 335 435 238Q457 150 457 91ZM313
316Q287 318 268 337L266 353Q254 369 229 369Q179 369 147 296Q120 235 120 178Q120 141 138 103Q159 57 192 57Q248 57 284 162Q313 245 313 316Z" />
<glyph unicode="e" glyph-name="e" horiz-adv-x="544" d="M491 266Q491 225 434 203Q392 187 342 187H281Q253 187 202 209Q145 234 145 255Q145 265 155 275T175 286Q189 286 218 272T250 258H357Q374 258 389 266Q408 275 408 290Q408 334 375 362T296 392Q290
396 284 396L245 384Q193 368 158 318T123 212Q123 132 195 91Q253 57 339 57Q350 57 365 69Q384 83 388 85Q414 72 427 44Q427 27 409 13T373 -1Q293 -1 247 17L245 25L241 24Q225 24 186 46Q121 82 90 114Q44 161 44 218Q44 322 119 389Q191 454 296 454Q304
448 315 448Q340 448 391 413Q434 384 459 358Q471 345 481 316T491 266Z" />
<glyph unicode="f" glyph-name="f" horiz-adv-x="463" d="M496 540Q496 539 490 528T483 513H458Q446 520 430 533Q430 553 376 586T299 619Q255 619 233 556Q226 537 212 457Q244 458 252 458Q295 458 325 451Q377 439 377 412Q377 385 310 380Q278 378 215 374Q206
359 205 284Q206 405 206 184Q206 46 196 26Q189 12 163 12Q111 12 111 88Q111 82 122 124Q130 154 130 358L122 363Q109 363 83 357T43 351Q23 351 0 364Q-26 378 -26 397Q-26 420 42 431Q72 435 132 444Q139 453 141 498Q144 549 158 585Q180 640 238 685Q254
689 293 689L301 683Q334 683 415 626T496 540Z" />
<glyph unicode="g" glyph-name="g" horiz-adv-x="440" d="M454 -230Q454 -238 450 -274Q442 -282 436 -293Q413 -333 391 -352Q364 -374 322 -380Q317 -383 305 -388V-388V-387Q302 -386 295 -385L261 -377Q202 -363 139 -317T37 -219Q30 -209 30 -176Q30 -163
45 -163Q53 -163 97 -203Q155 -256 186 -278Q242 -318 278 -318Q321 -318 352 -287T384 -213Q384 -152 357 -84Q340 -43 305 38Q258 7 241 7Q159 7 82 36Q-19 74 -19 141Q-19 198 26 279Q76 369 125 369Q232 369 256 358Q256 366 254 380T251 403Q251 422 267 422Q301
422 313 410Q333 390 348 288Q359 212 360 154Q362 56 418 -100Q425 -120 437 -137Q446 -151 449 -163Q454 -183 454 -230ZM279 139Q279 182 264 309Q209 309 192 314Q198 306 198 301Q198 295 190 291Q187 294 183 300Q187 301 152 301Q118 301 89 226Q64 162
64 121Q64 97 89 78T140 58Q177 58 224 81Q279 108 279 139Z" />
<glyph unicode="h" glyph-name="h" horiz-adv-x="531" d="M521 16Q521 6 498 -7Q475 -4 475 2Q475 5 478 4Q442 19 431 58Q425 96 419 135Q405 218 389 261Q364 325 326 325Q228 325 205 43Q181 30 171 30Q138 30 122 72Q86 168 47 391T8 720Q8 730 22 740Q30
731 38 731Q40 733 44 734Q58 727 66 721Q82 710 90 641Q108 489 154 282L160 288Q180 337 216 367Q257 401 306 401Q313 399 345 390Q415 370 458 276Q482 224 505 114Q521 39 521 16Z" />
<glyph unicode="i" glyph-name="i" horiz-adv-x="332" d="M126 520Q126 512 113 505T91 497Q71 497 53 518T35 561Q35 589 61 589Q87 589 106 568T126 520ZM300 49Q300 6 277 6Q262 6 225 37Q218 117 180 270Q167 305 145 377Q151 397 167 397Q205 397 229 347Q244
317 272 199T300 49Z" />
<glyph unicode="j" glyph-name="j" horiz-adv-x="460" d="M272 510Q272 500 260 489T237 477Q199 477 169 491Q130 509 130 542L131 547Q158 559 172 559Q182 559 202 556T233 552Q249 552 260 539T272 510ZM442 -102Q442 -119 434 -153T426 -204Q426 -253 375
-302T274 -351Q223 -351 165 -316T80 -234Q17 -196 17 -124Q17 -112 32 -103T60 -93Q201 -283 263 -283Q315 -283 340 -235Q360 -198 360 -141Q360 -8 256 270Q220 366 220 372Q220 394 258 394L270 385L278 388L285 385Q300 371 333 318Q395 186 421 33Q427 -3
440 -95L442 -100V-102Z" />
<glyph unicode="k" glyph-name="k" horiz-adv-x="507" d="M524 82Q524 67 493 67Q473 67 167 249V231Q167 200 185 139T204 47Q204 33 192 24T164 15Q122 15 101 91Q94 117 83 199Q77 247 65 342L25 620Q10 724 10 731Q10 756 45 756Q74 756 92 737Q104 724 112
641Q116 590 120 539Q122 514 143 418Q155 418 218 469Q278 518 289 534Q293 540 321 583Q346 621 355 621Q356 621 371 616T389 609Q393 611 395 611Q403 611 409 603T416 587Q416 566 345 489Q278 416 249 397Q236 389 210 373Q180 354 180 345Q180 315 317 238Q376
207 492 142Q524 123 524 82Z" />
<glyph unicode="l" glyph-name="l" horiz-adv-x="258" d="M239 65Q239 61 237 52T235 39Q222 22 203 22Q143 22 88 324Q44 565 40 709Q48 716 55 716Q81 716 106 682Q148 443 188 244Q192 225 217 151Q239 86 239 65Z" />
<glyph unicode="m" glyph-name="m" horiz-adv-x="625" d="M594 56Q594 45 583 38T559 30Q558 31 544 41Q505 69 497 90Q479 140 432 270Q427 261 403 154Q383 64 363 64Q328 64 311 86Q299 103 291 142Q272 244 235 310Q224 297 198 222L199 213Q199 196 166 48Q160
22 149 13T111 4Q85 4 72 37Q63 59 45 203Q28 342 28 378Q28 396 46 396Q49 396 54 391T62 384L76 387Q97 367 109 308T127 245L149 331Q167 377 202 402Q209 398 225 393L227 398L230 399L243 390Q255 393 254 393Q287 393 306 341Q330 274 337 267Q357 318 364
331Q387 375 406 375Q411 375 464 355Q497 333 531 233Q546 186 576 93Q577 89 585 75T594 56Z" />
<glyph unicode="n" glyph-name="n" horiz-adv-x="463" d="M438 39Q438 30 429 22T410 14Q373 14 355 81Q345 127 324 220Q305 305 277 334Q250 289 226 170Q215 114 193 -7H130Q124 -7 115 9Q59 111 47 402L51 410H73Q93 392 103 382Q124 361 129 279Q135 183
143 160Q151 177 177 297Q197 391 228 419Q373 412 426 105Q438 35 438 39Z" />
<glyph unicode="o" glyph-name="o" horiz-adv-x="587" d="M543 188Q543 153 529 121Q511 80 432 38T304 -4Q300 -4 293 -3T281 -2H279Q275 -7 267 -7Q185 -7 115 38Q36 90 36 168Q36 203 62 259Q106 352 164 381Q211 404 322 404Q356 404 436 375Q486 314 492
306Q521 265 531 226Q532 223 537 208T543 188ZM469 217Q469 263 435 298T355 334Q344 339 341 339Q290 339 263 326Q263 290 245 290Q242 290 224 300T203 311Q176 311 142 246Q111 185 111 154Q111 64 236 64Q258 64 302 72Q352 81 360 91Q469 141 469 217Z"
/>
<glyph unicode="p" glyph-name="p" horiz-adv-x="504" d="M454 186Q454 148 416 106Q395 83 344 43Q303 11 301 2L196 0Q221 -264 221 -315Q221 -372 180 -372Q158 -372 140 -340L129 -333Q135 -315 135 -289Q135 -240 125 -143T114 4Q114 47 115 84Q117 149 116
167Q114 212 108 248Q98 239 93 239Q73 239 59 259T45 301Q45 336 109 384Q107 393 107 404Q107 422 110 440H120Q128 440 148 422T178 403Q185 403 199 406T220 409Q225 409 248 399T277 388L283 391Q292 385 310 376Q363 356 408 298T454 186ZM376 227Q376 260
319 298Q266 335 231 335Q224 335 184 325V223Q184 201 187 159T191 94Q191 77 185 71H202L233 86Q245 81 270 74Q295 79 335 139T376 227Z" />
<glyph unicode="q" glyph-name="q" horiz-adv-x="391" d="M386 -141Q386 -159 352 -256Q345 -276 329 -297L298 -336Q292 -346 278 -363Q266 -373 233 -373Q226 -367 210 -357Q207 -338 207 -338Q195 -337 181 -332Q166 -222 153 -214V-99L158 -92Q154 -73 154
-25Q161 -20 171 -8Q171 -1 103 11Q45 54 41 59Q32 71 18 132L5 190Q5 197 7 210T9 231L19 235Q43 316 97 347Q104 348 109 349L114 356L122 360L133 354Q135 354 142 357T152 360Q171 360 217 351Q221 358 225 387T238 424Q230 424 281 418L286 424Q295 424 307
411T319 389V219Q319 194 312 140Q304 76 297 66Q282 50 262 17Q240 -56 240 -142Q240 -213 251 -227Q266 -206 280 -163Q295 -116 305 -98Q308 -92 317 -90L320 -81Q326 -76 342 -76Q364 -76 376 -99Q386 -117 386 -141ZM216 231Q211 258 203 278Q192 272 163
272Q159 272 152 275T140 278Q127 278 107 225Q90 177 90 158Q90 133 103 101Q119 62 139 62Q174 62 182 72Q196 133 216 231Z" />
<glyph unicode="r" glyph-name="r" horiz-adv-x="370" d="M335 365Q335 359 329 339Q319 340 301 345Q296 347 289 348Q281 348 256 305Q220 243 210 164Q210 164 194 14Q189 17 184 17Q181 17 175 12T165 7Q108 7 89 94Q56 247 61 289Q52 305 45 357Q38 403 38
429Q49 430 72 432Q80 428 85 420L88 426Q120 412 125 360Q131 294 138 282Q183 364 185 366Q220 415 263 415Q289 415 310 403Q335 389 335 365Z" />
<glyph unicode="s" glyph-name="s" horiz-adv-x="411" d="M386 133Q386 98 341 73Q315 58 252 40T167 8Q158 10 139 14L124 8Q90 8 81 18T66 35L65 31L62 29Q55 35 40 45V68Q161 68 291 144Q30 298 30 391Q30 437 174 437L184 443Q207 443 248 422Q294 400 294
380Q282 357 272 357Q256 357 226 364T180 372Q113 372 113 359Q113 343 150 302Q183 266 202 253T278 209Q283 197 292 197L293 199L297 201Q305 194 323 183Q355 169 362 165Q386 151 386 133Z" />
<glyph unicode="t" glyph-name="t" horiz-adv-x="513" d="M482 405Q482 382 402 378Q368 377 300 375Q297 373 297 367Q297 308 332 195T367 21V18Q360 13 345 5Q339 9 327 15L326 14L322 12Q317 13 317 17Q286 19 275 63Q247 179 215 366Q198 366 166 357T117
347Q89 347 63 362Q31 380 33 405Q58 423 115 435Q133 439 205 448L190 662Q190 682 193 710Q217 707 230 704Q257 698 262 690T271 613L275 525Q283 451 296 451Q313 451 347 454T399 458Q401 458 472 431Q482 408 482 405Z" />
<glyph unicode="u" glyph-name="u" horiz-adv-x="505" d="M454 168Q454 4 303 4Q192 4 129 169Q81 295 81 430Q81 436 84 443H100Q108 443 110 435Q147 433 160 340Q168 282 184 167Q208 75 269 75Q329 75 357 145Q378 196 378 266Q378 317 350 421L354 431H377L400
412Q427 390 442 297Q454 225 454 168Z" />
<glyph unicode="v" glyph-name="v" horiz-adv-x="568" d="M533 419Q533 382 479 253L405 77Q400 59 387 28Q377 12 352 12Q355 12 309 28Q310 36 294 53Q249 99 150 255Q44 421 44 461Q44 484 62 484Q121 460 140 418Q147 400 168 354Q211 270 319 132Q388 252
451 467L467 478L474 471Q493 469 513 453T533 419Z" />
<glyph unicode="w" glyph-name="w" horiz-adv-x="844" d="M802 381Q802 358 735 189T654 10Q647 5 616 5Q590 5 524 117Q501 157 443 262L431 150Q421 60 393 60Q369 60 235 164Q197 194 149 268Q98 348 68 376Q64 375 62 373Q53 374 39 393V459Q83 453 136 385Q169
341 236 254Q295 180 352 162Q370 192 384 296Q400 414 408 440L417 448Q424 438 432 438Q435 441 437 442Q467 430 479 415Q504 384 535 267Q565 154 598 119Q631 169 670 282T742 445Q747 439 760 438Q802 393 802 381Z" />
<glyph unicode="x" glyph-name="x" horiz-adv-x="503" d="M478 371Q436 325 356 231Q342 213 329 196L398 133Q451 84 451 71Q451 63 441 50T422 37Q389 37 346 76Q284 132 279 135Q249 90 186 4Q183 4 177 3T167 1Q151 1 130 18T109 51Q109 58 111 58Q112 58
114 55Q124 85 149 117Q157 126 197 171Q199 180 216 198L107 309Q42 383 26 436Q46 449 57 449Q80 440 87 440T172 356Q260 260 263 257Q273 267 293 288Q312 314 351 363T425 413Q439 413 458 399T478 371Z" />
<glyph unicode="y" glyph-name="y" horiz-adv-x="546" d="M524 419Q524 411 487 298T443 175Q418 135 384 62Q389 58 389 51Q389 43 346 -28T302 -119Q247 -186 207 -319Q204 -336 196 -368Q187 -403 172 -403Q136 -403 108 -384Q101 -370 101 -365Q101 -292 171
-155Q180 -137 282 52Q239 84 139 235Q37 390 37 432Q37 451 64 451Q93 451 110 434Q137 406 208 332Q221 318 242 255T284 178L323 152Q338 183 386 314Q425 420 455 466Q477 464 498 452Q524 438 524 419Z" />
<glyph unicode="z" glyph-name="z" horiz-adv-x="585" d="M601 79Q601 55 546 47Q522 45 474 39L227 7Q119 -7 113 -7Q84 -7 62 8T40 51Q40 70 108 151T200 246T265 313Q291 346 327 384Q320 386 277 386Q244 386 179 377T81 367Q57 367 36 382T15 421Q15 440
58 447Q86 450 114 452Q185 459 207 459L214 453Q224 456 243 461Q273 466 362 466Q369 469 375 474Q382 472 405 472Q416 472 437 478T470 484Q487 484 511 466T535 432Q535 421 524 408Q467 387 350 263Q305 215 187 84Q194 83 204 83Q260 83 369 107T535 131Q558
131 575 114Q577 112 601 79Z" />
<glyph unicode="{" glyph-name="braceleft" horiz-adv-x="369" d="M336 662Q336 642 326 636Q321 633 301 633Q268 633 231 605Q191 576 191 544Q203 527 227 493Q248 462 248 436Q248 404 231 385Q226 379 185 348Q212 294 212 272Q212 251 195 211Q176 167 173
149Q209 135 230 135L236 138Q271 138 296 127Q330 112 330 82Q330 56 304 56Q249 56 206 68Q143 85 136 121L125 130L112 173Q112 193 126 235Q144 290 146 299L119 311Q95 339 82 373Q102 386 143 414T185 461Q155 503 149 513Q134 542 134 574Q134 629 180 671T283
714Q302 714 319 698T336 662ZM396 -8H388V-3H396V-8ZM362 -8H351V-3H362V-8ZM341 -8H330V-3H341V-8ZM314 -8H303V-3H314V-8ZM299 -8H279V-3H299V-8ZM275 -8L-14 -5V0L275 -3V-8Z" />
<glyph unicode="|" glyph-name="bar" d="M476 789H449V794H476V789ZM445 789H413V794H445V789ZM382 789H365V794H382V789ZM345 789H337V794H345V789ZM94 123Q94 72 60 72Q42 72 25 92T4 131Q-3 162 -3 204Q-3 194 -2 237Q-2 237 -2 269Q-2 316 -10 346Q-27 410
-30 507V670Q-30 714 -13 714Q14 714 32 692T51 643Q51 628 49 600T47 556Q47 480 77 228Q79 214 87 176Q94 144 94 123Z" />
<glyph unicode="}" glyph-name="braceright" horiz-adv-x="480" d="M426 165Q426 128 366 64T268 -1Q259 6 239 17Q234 16 233 11Q222 21 204 47Q255 84 281 107Q327 147 344 180Q253 228 253 280Q253 287 265 311Q213 362 213 408Q213 433 249 502T286 589Q286
605 233 614Q197 620 161 620Q151 620 132 612T102 604Q81 604 68 622T55 663V671Q91 690 145 690Q224 690 282 661Q356 624 356 553Q356 528 319 459T283 372Q290 365 308 364Q320 363 339 365Q362 367 370 367Q384 367 403 350T423 318Q423 303 389 283Q346 258
341 253Q390 219 394 216Q426 189 426 165Z" />
<glyph unicode="~" glyph-name="asciitilde" horiz-adv-x="742" d="M625 345L586 319Q574 314 541 314Q538 314 531 318T522 323Q512 320 510 320Q473 320 400 370Q400 370 294 444Q282 444 247 413T207 381Q197 381 181 402T165 435Q165 459 203 491T266 525Q274
529 283 529Q299 529 350 492Q420 441 448 424Q510 387 556 387Q564 387 579 391T603 396Q608 396 625 387V345Z" />
</font>
</defs>
</svg>
